<svg xmlns="http://www.w3.org/2000/svg" viewBox="0 0 2020.8 360.82"><defs><style>.cls-1,.cls-3{fill:#62c557;}.cls-2{font-size:173.58px;font-family:Montserrat-ExtraBold, Montserrat;font-weight:800;letter-spacing:-0.02em;}.cls-2,.cls-4{fill:#fff;}.cls-3{letter-spacing:-0.03em;}.cls-4{font-size:72px;font-family:Helvetica-Bold, Helvetica;font-weight:700;}.cls-5{fill:none;stroke:#fff;stroke-miterlimit:10;stroke-width:2px;}</style></defs><g id="Layer_2" data-name="Layer 2"><g id="Layer_1-2" data-name="Layer 1"><path class="cls-1" d="M320.07,5.18H35.56A35.56,35.56,0,0,0,0,40.74V325.26a35.56,35.56,0,0,0,35.56,35.56h249V307.17a20.86,20.86,0,0,1-3.56.3H74.68a21.33,21.33,0,0,1-21.33-21.34V79.87A21.33,21.33,0,0,1,74.68,58.53H281a21.33,21.33,0,0,1,21.34,21.34V286.13a20.86,20.86,0,0,1-.3,3.56h53.65V40.74A35.56,35.56,0,0,0,320.07,5.18Z"/><path class="cls-1" d="M302.29,307.47h53.35a0,0,0,0,1,0,0v23.35a30,30,0,0,1-30,30H302.29a0,0,0,0,1,0,0V307.47A0,0,0,0,1,302.29,307.47Z"/><path class="cls-1" d="M497.18,5.18H373.42V58.53H497.18A124.47,124.47,0,0,1,621.65,183h0A124.47,124.47,0,0,1,497.18,307.47H373.42v53.35H497.18A177.82,177.82,0,0,0,675,183h0A177.82,177.82,0,0,0,497.18,5.18Z"/><text class="cls-2" transform="translate(716.88 147.54)">QUICK <tspan class="cls-3" x="625.23" y="0">DESIGN</tspan></text><text class="cls-4" transform="translate(1596.96 255.41)">BY VEDANT</text><line class="cls-5" x1="1476" y1="230" x2="733" y2="230"/><line class="cls-5" x1="1525" y1="230" x2="782" y2="230"/></g></g></svg>