<svg xmlns="http://www.w3.org/2000/svg" viewBox="0 0 2020.8 380.82"><defs><style>.cls-1,.cls-3{fill:#62c557;}.cls-2{font-size:173.58px;font-family:Montserrat-ExtraBold, Montserrat;font-weight:800;letter-spacing:-0.02em;}.cls-2,.cls-5{fill:#fff;}.cls-3{letter-spacing:-0.03em;}.cls-4{fill:none;stroke:#fff;stroke-miterlimit:10;stroke-width:5px;}.cls-5{font-size:60px;font-family:Montserrat-Medium, Montserrat;font-weight:500;letter-spacing:0.4em;}.cls-6{letter-spacing:0.39em;}.cls-7{letter-spacing:0.38em;}.cls-8{letter-spacing:0.39em;}.cls-9{letter-spacing:0.4em;}</style></defs><g id="Layer_2" data-name="Layer 2"><g id="Layer_1-2" data-name="Layer 1"><path class="cls-1" d="M320.07,25.18H35.56A35.56,35.56,0,0,0,0,60.74V345.26a35.56,35.56,0,0,0,35.56,35.56h249V327.17a20.86,20.86,0,0,1-3.56.3H74.68a21.33,21.33,0,0,1-21.33-21.34V99.87A21.33,21.33,0,0,1,74.68,78.53H281a21.33,21.33,0,0,1,21.34,21.34V306.13a20.86,20.86,0,0,1-.3,3.56h53.65V60.74A35.56,35.56,0,0,0,320.07,25.18Z"/><path class="cls-1" d="M302.29,327.47h53.35a0,0,0,0,1,0,0v23.35a30,30,0,0,1-30,30H302.29a0,0,0,0,1,0,0V327.47A0,0,0,0,1,302.29,327.47Z"/><path class="cls-1" d="M497.18,25.18H373.42V78.53H497.18A124.47,124.47,0,0,1,621.65,203h0A124.47,124.47,0,0,1,497.18,327.47H373.42v53.35H497.18A177.82,177.82,0,0,0,675,203h0A177.82,177.82,0,0,0,497.18,25.18Z"/><text class="cls-2" transform="translate(716.88 147.54)">QUICK <tspan class="cls-3" x="625.23" y="0">DESIGN</tspan></text><rect class="cls-4" x="722.04" y="246.3" width="1286.97" height="127" rx="63.5"/><text class="cls-5" transform="translate(865.96 327.41)">DESIGN <tspan class="cls-6" x="424.8" y="0">B</tspan><tspan x="493.32" y="0">Y </tspan><tspan class="cls-7" x="596.28" y="0">V</tspan><tspan x="662.09" y="0">E</tspan><tspan class="cls-8" x="726.29" y="0">D</tspan><tspan class="cls-9" x="799.25" y="0">ANT</tspan></text></g></g></svg>